PathFileType	4	(X/Y/Z)	4_coords_data.trc
DataRate	CameraRate	NumFrames	NumMarkers	Units	OrigDataRate	OrigDataStartFrame	OrigNumFrames
30.0	30.0	6	21	m	30.0	23	44
Frame#	Time	THUMB_TIP	THUMB_IP	THUMB_MCP	THUMB_CMC	INDEX_TIP	INDEX_DIP	INDEX_PIP	INDEX_MCP	MIDDLE_TIP	MIDDLE_DIP	MIDDLE_PIP	MIDDLE_MCP	RING_TIP	RING_DIP	RING_PIP	RING_MCP	PINKY_TIP	PINKY_DIP	PINKY_PIP	PINKY_MCP	WRIST
X1	Y1	Z1	X2	Y2	Z2	X3	Y3	Z3	X4	Y4	Z4	X5	Y5	Z5	X6	Y6	Z6	X7	Y7	Z7	X8	Y8	Z8	X9	Y9	Z9	X10	Y10	Z10	X11	Y11	Z11	X12	Y12	Z12	X13	Y13	Z13	X14	Y14	Z14	X15	Y15	Z15	X16	Y16	Z16	X17	Y17	Z17	X18	Y18	Z18	X19	Y19	Z19	X20	Y20	Z20	X21	Y21	Z21
21	0.7333333333333302	0.48860272483644573	-0.019410180166534508	-0.16950491249346966	0.4912383949147434	-0.021522984753447827	-0.1467763115682943	0.4760976035024963	-0.028977086895679127	-0.12062267326185588	0.47724300903836747	-0.02715818306047979	-0.07606630856502838	0.4959523495465976	-0.015158370640511398	-0.09968489310020978	0.5134344548934621	-0.014886550357493644	-0.10440740370103135	0.5282041137011841	0.00015135391253739972	-0.11810880679957791	0.4910048843610145	0.02088242076724134	-0.11838502693509806	0.4992135649147764	-0.017002986383828467	-0.08598724928802864	0.516553947266643	-0.0119856392605735	-0.08744922320565995	0.5359525555870637	0.006829677792522859	-0.09836194007280025	0.4998243784332883	0.03310626815256423	-0.09769595539128201	0.49912108446285786	-0.005947938027830335	-0.07322234092895419	0.5170001215611878	-0.00629118906405346	-0.07093712514862272	0.5378633605534526	0.006438528579763014	-0.07571828886265175	0.5107189927877174	0.03639830499412866	-0.07515621253355403	0.502255889404639	-0.008151897192376634	-0.055668970571514154	0.5192843466022993	-0.009875671872401126	-0.05542351931369871	0.5352134854360584	0.0037775944209343937	-0.054609348239477884	0.5122571137786238	0.031380704469893606	-0.051151492408072985	0.4622830810018609	-0.023011742144276925	-0.05198982011943093
22	0.7666666666666633	0.4891427532137609	-0.020008887751427396	-0.16957721752404897	0.49124801662652484	-0.02202185733158446	-0.1467843278557283	0.47596537101353753	-0.029274106906088004	-0.12065645731148078	0.47716054748607295	-0.02718083433907792	-0.07611344704994022	0.4953563757642139	-0.014693938028827347	-0.09987016520665604	0.5128940129371269	-0.014840253629396338	-0.10438789407593202	0.5278616032672967	-0.00015432996652897657	-0.11825529177256727	0.4907553300257824	0.020741887214875243	-0.1185849698483844	0.49879761923626387	-0.01684440556652478	-0.08610409959973558	0.5161416922419291	-0.011820918908124312	-0.08749970461800755	0.5357311291133845	0.006704014311865736	-0.09856724103105724	0.49963224366076076	0.03302215550551124	-0.09795582121646013	0.49872799259485256	-0.0055763462969227184	-0.07350613931028482	0.5165744515056268	-0.00600766840628586	-0.07099260284068182	0.5375659133709125	0.006469975165106057	-0.07587593353433353	0.5104828339256489	0.03648696244871408	-0.07541973601432428	0.501884522618738	-0.007754352973810552	-0.0557023768842585	0.5189093417845123	-0.00951971652029815	-0.05550483215157048	0.5349361788276986	0.004031733507323998	-0.054947413511754084	0.511985645183075	0.031632463966096536	-0.05143228413018286	0.4622830810018608	-0.023011742144276925	-0.05198982011943093
23	0.7999999999999965	0.48986031439941713	-0.020756832018522187	-0.16964198046748824	0.4912141661485194	-0.022649628964932833	-0.14678187536796805	0.4757243377877943	-0.029619460524799357	-0.12069918636966187	0.4770482070410751	-0.02722271744462612	-0.07617511430961937	0.4948834029397333	-0.014351817538707068	-0.09998298193266475	0.5124274226145578	-0.014891369191514348	-0.10444574538856566	0.5274653752714362	-0.000583656044792602	-0.11862880420535887	0.490459124957226	0.020490329345310587	-0.11887511997777173	0.49831921602402807	-0.016434943024141502	-0.08620179567300451	0.5157556871221902	-0.011743239238388048	-0.08760086365909442	0.5354892682718987	0.006429220588759721	-0.09899195793658039	0.49945292479273007	0.032831748456675025	-0.0983313583336915	0.4982824931877611	-0.005016530822565257	-0.07365282455370087	0.5161121596988812	-0.005736911965407598	-0.07108688552260967	0.5372298833297346	0.006421838452521533	-0.07622366621925347	0.5102376041312768	0.03652140902304435	-0.07583181274838707	0.5015669039231158	-0.007316223853510495	-0.05566344172135157	0.518593604638987	-0.009073177382600828	-0.05573109546309313	0.5347088355109761	0.00438369175693043	-0.05557609254695922	0.511689340917394	0.03190323223789149	-0.051879984949391555	0.4622830810018609	-0.023011742144276925	-0.05198982011943093
24	0.8333333333333297	0.4908116118230046	-0.021684103579622027	-0.16961625728229934	0.4912471468482905	-0.02341542389599205	-0.14670746335499113	0.47547209329245366	-0.030063281968854882	-0.12071181625103244	0.4769553404804526	-0.027334459484675055	-0.07621188922155142	0.4948322008216417	-0.014588076460622545	-0.09997797020040383	0.5123032865191622	-0.015301686117364155	-0.10469516489722264	0.5270900319130225	-0.0011744172452029522	-0.11931645991068907	0.4901789055298783	0.020067104180399253	-0.11926536535867094	0.4980878862926542	-0.01606651904344203	-0.08619324788349864	0.5156528986658457	-0.011975827139237616	-0.08784750907040634	0.5353193210317186	0.005938243919255681	-0.09975244247796239	0.49937246278321945	0.03245518661337865	-0.09884521967241522	0.49803918617147336	-0.004713434772144587	-0.07351684840217404	0.5159126028775768	-0.005682561981035339	-0.07137167528492405	0.5370323945011393	0.0062814844920244806	-0.07693907797987698	0.5100732595186832	0.0364090667470397	-0.07643443705306047	0.501579498497134	-0.007091009105470447	-0.055707226401396304	0.5186107446404059	-0.008691671723289107	-0.056319218224218814	0.5346938754876008	0.0048015105049723505	-0.05660020667048776	0.5114709571027779	0.03209639123847541	-0.05252970320829736	0.4622830810018609	-0.023011742144276925	-0.051989820119430985
25	0.8666666666666629	0.49210102768959507	-0.02278336784571533	-0.1694511411177156	0.49146137960009484	-0.024315201386825303	-0.14653293140744522	0.47527213282114855	-0.030635068607106075	-0.12071070131304013	0.476845971646387	-0.027560888755804647	-0.07623641155374183	0.4952633289569802	-0.015607352737455504	-0.09999452683804144	0.5125732898186453	-0.01611432883029351	-0.1052962463901223	0.5267258759658547	-0.0018599622002328786	-0.12041336153559984	0.4898669452913903	0.019462553403369998	-0.11977645348168009	0.4983088727851772	-0.016207072076760975	-0.08618138113813895	0.5159215184127176	-0.012642831639127938	-0.08843768433173355	0.5351975533718577	0.005268899083159417	-0.1009682042246301	0.4993503427198863	0.03189627503822079	-0.09951621964447355	0.49823221343096014	-0.0049498861467274224	-0.073428341150796	0.5161781554610191	-0.006027036888240134	-0.07209308427145683	0.5370669544247353	0.006098787160224051	-0.07815958639369652	0.5100023081881638	0.0361222313748607	-0.07725484577902425	0.5020534841712048	-0.007186722645785015	-0.056318281285644256	0.5190844180453552	-0.008542863238916176	-0.05737097975433009	0.5349354403403569	0.0052099627101956925	-0.05801664965203357	0.511398917924391	0.032145449514761504	-0.053391164362488364	0.4622830810018608	-0.023011742144276925	-0.05198982011943104
26	0.8999999999999961	0.4938787493893443	-0.024140847140970312	-0.1691148809816274	0.49201436804666243	-0.025407917709090566	-0.14624746717104392	0.4752469578046057	-0.03134218043698833	-0.1207042003547017	0.4767058093959693	-0.027909910961555262	-0.07625218939588918	0.49640694725389867	-0.017636970307349342	-0.10017042970903234	0.5134116270450175	-0.017424209021979276	-0.10639904093762603	0.5265077568633145	-0.0026739443639629545	-0.12198528196299163	0.48965603009630976	0.0186106476797977	-0.12038763687702553	0.4992135974541416	-0.017068248456351465	-0.08653790029985264	0.5167801436557405	-0.01388269359208616	-0.08958235341229259	0.5352866832195992	0.004388392544845798	-0.10273852894882857	0.4995105574033293	0.031044687562270745	-0.10035973124359165	0.4992204630799164	-0.0059622642637289225	-0.07384772891169494	0.5172201853905373	-0.006881083362486162	-0.07344058249540597	0.5375734353749477	0.005872660556208942	-0.08001836404608453	0.5101438296844774	0.03552959086286456	-0.0783438341265309	0.5034419244457486	-0.007908398761847124	-0.057708770725894976	0.5204854928688528	-0.008661519774019744	-0.05910504582342885	0.5358247259886215	0.005651494006732927	-0.05991596062128196	0.5116455432199221	0.03188076518572791	-0.05459845133059199	0.4622830810018609	-0.023011742144276925	-0.051989820119430985
